<svg height="40" width="40" xmlns="http://www.w3.org/2000/svg">
    <path d="m-123-96.75h205v59h-205z" fill="#fff" stroke="#000"/>
    <rect fill="#239dad" height="38" rx="10" width="38" x="1" y="1"/>
    <path d="m20.70757 26.32848c0 1.20543.17296 2.01434.51889 2.42673.34592.41239.97487.61858 1.88682.61858.94346 0 2.15422-.47583 3.63227-1.42749l.94346 1.57024c-2.76747 2.3157-5.0474 3.47355-6.83993 3.47355-1.79252 0-3.20769-.42824-4.24546-1.28474-1.03778-.88821-1.55666-2.44259-1.55666-4.66313v-12.46664h-2.35859l-.37737-1.76057 2.73597-.85648v-2.33156l5.66062-2.61705v5.23411l5.5663-.42824-.51894 3.09288-5.04735-.19033v11.61015l-.00001.00001z"
          fill="#fff"/>
</svg>
